<svg width="180" height="146" viewBox="0 0 180 146" fill="none" xmlns="http://www.w3.org/2000/svg">
<path fill-rule="evenodd" clip-rule="evenodd" d="M157.709 -171.882C147.64 -156.797 135.501 -136.494 134.476 -116.034C134.155 -109.631 134.922 -103.212 137.181 -96.9319C137.056 -92.122 137.561 -87.3088 138.867 -82.5587C138.831 -82.078 138.801 -81.5972 138.777 -81.1162C138.594 -77.4727 138.764 -73.8237 139.36 -70.1981C139.103 -68.3876 138.925 -66.5723 138.834 -64.7557C138.806 -64.1941 138.786 -63.6323 138.775 -63.0704C129.696 -48.8023 120.299 -31.0295 119.403 -13.1354C118.889 -2.89561 121.159 7.3879 127.864 17.0733C134.566 26.7563 145.687 35.8217 162.841 43.6501C202.797 61.8848 235.504 56.6382 260.654 52.6037C262.989 52.2291 265.259 51.8649 267.464 51.531C280.46 49.5626 291.105 48.6599 299.475 52.7429C307.821 56.8148 313.991 65.8967 317.872 84.1382L318.452 84.0359C314.561 65.7464 308.339 56.4481 299.745 52.2556C291.175 48.0744 280.332 49.0233 267.364 50.9874C265.157 51.3217 262.886 51.6858 260.552 52.0602C235.408 56.0923 202.875 61.3093 163.097 43.1561C146.014 35.36 134.989 26.3549 128.36 16.778C121.732 7.20343 119.485 -2.96243 119.993 -13.1048C120.866 -30.524 129.865 -47.8621 138.764 -61.9652C138.764 -61.6362 138.768 -61.3073 138.774 -60.9783C138.611 -60.2844 138.459 -59.5891 138.317 -58.8927C132.583 -47.8612 128.004 -35.6947 127.392 -23.4717C126.879 -13.2319 129.148 -2.94835 135.853 6.73705C142.555 16.4201 153.676 25.4855 170.83 33.3139C210.787 51.5486 243.493 46.3019 268.643 42.2675L268.65 42.2663C270.983 41.8921 273.251 41.5283 275.453 41.1947C288.449 39.2263 299.094 38.3236 307.464 42.4067C315.81 46.4785 321.981 55.5605 325.861 73.8019L326.441 73.6997C322.551 55.4101 316.328 46.1118 307.735 41.9194C299.164 37.7381 288.321 38.687 275.353 40.6512C273.149 40.985 270.882 41.3485 268.551 41.7223L268.545 41.7232L268.541 41.7239C243.397 45.756 210.864 50.973 171.086 32.8198C154.003 25.0238 142.978 16.0187 136.349 6.44173C129.722 -3.13281 127.474 -13.2987 127.983 -23.4411C128.557 -34.9049 132.651 -46.3337 137.92 -56.8284C135.405 -49.9259 133.686 -42.7875 133.328 -35.6297C132.815 -25.3898 135.085 -15.1063 141.789 -5.42092C148.491 4.2621 159.612 13.3275 176.766 21.1559C216.723 39.3906 249.429 34.1439 274.579 30.1095L274.581 30.1092C276.915 29.7347 279.185 29.3706 281.389 29.0368C294.385 27.0684 305.03 26.1657 313.4 30.2487C321.747 34.3205 327.917 43.4025 331.797 61.6439L332.377 61.5417C328.487 43.2521 322.265 33.9538 313.671 29.7614C305.1 25.5801 294.257 26.5291 281.289 28.4932C279.086 28.827 276.818 29.1905 274.488 29.5643L274.481 29.5653L274.477 29.5659C249.333 33.5981 216.801 38.815 177.023 20.6618C159.94 12.8658 148.914 3.86068 142.285 -5.71625C135.658 -15.2908 133.41 -25.4567 133.919 -35.599C134.224 -41.7005 135.527 -47.792 137.473 -53.738C137.3 -52.3224 137.175 -50.9044 137.104 -49.4856C136.591 -39.2458 138.861 -28.9622 145.565 -19.2768C152.268 -9.59383 163.388 -0.528437 180.542 7.29996C220.499 25.5347 253.205 20.288 278.355 16.2536L278.357 16.2533L278.369 16.2514L278.376 16.2502L278.388 16.2484L278.398 16.2467L278.409 16.2449L278.419 16.2433L278.419 16.2433L278.422 16.2428C280.734 15.8721 282.982 15.5116 285.166 15.1808C298.161 13.2124 308.807 12.3097 317.176 16.3928C325.523 20.4646 331.693 29.5465 335.573 47.788L336.154 47.6858C332.263 29.3962 326.041 20.0979 317.447 15.9055C308.876 11.7242 298.033 12.6731 285.065 14.6373C282.859 14.9716 280.588 15.3357 278.254 15.71C253.109 19.7421 220.577 24.9591 180.799 6.80592C163.716 -0.990118 152.69 -9.99523 146.061 -19.5722C139.434 -29.1467 137.187 -39.3126 137.695 -49.4549C137.817 -51.888 138.097 -54.3194 138.514 -56.7407C138.65 -57.1124 138.788 -57.4834 138.928 -57.8538C139.565 -49.9247 142.097 -42.0561 147.295 -34.547C153.997 -24.864 165.118 -15.7986 182.272 -7.97018C222.229 10.2645 254.935 5.01789 280.085 0.983445C282.42 0.608819 284.691 0.244646 286.895 -0.089327C299.891 -2.05772 310.537 -2.9604 318.906 1.12262C327.253 5.19448 333.423 14.2764 337.303 32.5179L337.883 32.4156C333.993 14.1261 327.771 4.82779 319.177 0.635349C310.606 -3.54594 299.763 -2.59702 286.795 -0.632863C284.588 -0.29861 282.318 0.0655235 279.983 0.439861L279.983 0.439882C254.839 4.47201 222.306 9.68893 182.529 -8.46423C165.446 -16.2603 154.42 -25.2654 147.791 -34.8423C142.377 -42.6643 139.886 -50.8809 139.433 -59.157C139.763 -59.9942 140.105 -60.8276 140.456 -61.6568C140.69 -62.0841 140.926 -62.5095 141.162 -62.933C142.533 -58.8548 144.521 -54.832 147.238 -50.9075C153.94 -41.2245 165.061 -32.1591 182.215 -24.3307C222.172 -6.09595 254.878 -11.3426 280.028 -15.377C282.363 -15.7517 284.634 -16.1158 286.838 -16.4498C299.834 -18.4182 310.479 -19.3209 318.849 -15.2379C327.196 -11.166 333.366 -2.08407 337.246 16.1574L337.826 16.0551C333.936 -2.23441 327.714 -11.5327 319.12 -15.7251C310.549 -19.9064 299.706 -18.9575 286.738 -16.9934C284.531 -16.6591 282.261 -16.295 279.926 -15.9206C254.782 -11.8885 222.249 -6.67152 182.472 -24.8247C165.389 -32.6208 154.363 -41.6259 147.734 -51.2028C144.93 -55.2533 142.91 -59.4097 141.552 -63.6254C142.642 -65.5556 143.757 -67.4441 144.88 -69.2842C145.144 -68.8797 145.415 -68.4761 145.693 -68.0736C152.396 -58.3906 163.517 -49.3252 180.671 -41.4968C220.627 -23.2621 253.334 -28.5087 278.483 -32.5432L278.486 -32.5436L278.491 -32.5444L278.514 -32.5481C280.838 -32.9209 283.099 -33.2834 285.294 -33.6159C298.289 -35.5844 308.935 -36.487 317.304 -32.404C325.651 -28.3321 331.821 -19.2502 335.702 -1.00875L336.282 -1.11098C332.391 -19.4006 326.169 -28.6988 317.575 -32.8913C309.004 -37.0725 298.161 -36.1236 285.194 -34.1595C283.001 -33.8274 280.745 -33.4657 278.427 -33.094L278.421 -33.0931L278.414 -33.092L278.407 -33.0909L278.384 -33.0872L278.382 -33.0868C253.238 -29.0546 220.705 -23.8377 180.927 -41.9909C163.844 -49.7869 152.819 -58.792 146.19 -68.3689C145.853 -68.8546 145.528 -69.3418 145.215 -69.8304C146.836 -72.4713 148.471 -75.0105 150.067 -77.4286C156.729 -70.8985 165.823 -64.7659 177.914 -59.248C217.871 -41.0133 250.577 -46.2599 275.727 -50.2944L275.734 -50.2956C278.067 -50.6697 280.335 -51.0335 282.537 -51.3671C295.533 -53.3355 306.178 -54.2382 314.548 -50.1552C322.895 -46.0833 329.065 -37.0014 332.945 -18.7599L333.525 -18.8622C329.635 -37.1517 323.413 -46.45 314.819 -50.6424C306.248 -54.8237 295.405 -53.8748 282.437 -51.9106C280.23 -51.5764 277.96 -51.2123 275.625 -50.838C250.481 -46.8058 217.948 -41.5888 178.171 -59.742C166.064 -65.267 157 -71.3991 150.387 -77.9117C150.635 -78.2864 150.882 -78.6581 151.128 -79.0267L150.625 -79.3205C150.406 -78.9927 150.187 -78.6625 149.966 -78.3299C149.753 -78.5442 149.542 -78.7588 149.333 -78.9739C151.899 -83.3118 154.544 -87.4081 157.065 -91.1847L156.561 -91.4784C154.072 -87.7493 151.457 -83.7014 148.914 -79.4111C148.244 -80.1162 147.601 -80.8256 146.986 -81.5388C151.184 -90.1253 156.221 -98.1199 160.841 -105.041L160.338 -105.334C155.764 -98.4826 150.764 -90.5547 146.572 -82.0245C145.607 -83.1681 144.711 -84.3215 143.881 -85.4836C148.521 -98.3475 155.972 -110.425 162.571 -120.311L162.067 -120.605C155.54 -110.826 148.144 -98.855 143.468 -86.0699L143.433 -86.1201C142.391 -87.626 141.457 -89.1464 140.625 -90.6791C144.145 -107.641 154.033 -123.966 162.514 -136.671L162.01 -136.965C153.649 -124.439 143.861 -108.316 140.194 -91.4917C139.249 -93.316 138.446 -95.1569 137.775 -97.0105C137.786 -97.4243 137.802 -97.838 137.823 -98.2517C138.84 -118.555 150.898 -138.749 160.969 -153.837L160.466 -154.131C150.441 -139.113 138.365 -118.924 137.247 -98.5552C135.396 -104.3 134.774 -110.156 135.067 -116.003C136.084 -136.306 148.141 -156.5 158.213 -171.589L157.709 -171.882ZM140.235 -64.2693C139.92 -63.1567 139.63 -62.04 139.366 -60.92L139.367 -60.8776C139.55 -61.2166 139.733 -61.5543 139.918 -61.8909C140.214 -62.5889 140.517 -63.2837 140.826 -63.9753C140.741 -64.2503 140.658 -64.5256 140.579 -64.8011L140.442 -64.5908L140.235 -64.2693ZM141.004 -65.4552C141.065 -65.233 141.129 -65.0109 141.194 -64.789C141.715 -65.9329 142.254 -67.0675 142.807 -68.1915C142.211 -67.2966 141.609 -66.3841 141.004 -65.4552ZM143.073 -68.7294C143.389 -69.366 143.71 -69.9991 144.035 -70.6286C143.669 -71.2311 143.319 -71.8357 142.985 -72.4422C142.19 -70.3923 141.462 -68.3201 140.816 -66.2312C141.428 -67.1667 142.036 -68.0848 142.636 -68.9842L143.073 -68.7294ZM139.685 -64.4906C139.848 -65.0664 140.018 -65.6411 140.194 -66.2145C140.018 -66.9054 139.858 -67.5976 139.714 -68.2909C139.582 -67.1033 139.484 -65.9144 139.425 -64.7251C139.413 -64.4967 139.403 -64.2683 139.395 -64.0399C139.491 -64.1906 139.588 -64.3408 139.685 -64.4906ZM144.53 -69.8296C144.053 -69.0509 143.578 -68.2633 143.105 -67.4673C143.526 -68.3332 143.956 -69.193 144.394 -70.0464L144.464 -69.9346L144.53 -69.8296ZM149.646 -77.8458C148.076 -75.4706 146.467 -72.9755 144.867 -70.3789C144.812 -70.4677 144.757 -70.5565 144.702 -70.6454C146.09 -73.3222 147.547 -75.934 149.033 -78.4653C149.235 -78.2584 149.439 -78.0519 149.646 -77.8458ZM148.612 -78.9012C147.954 -79.5898 147.321 -80.2827 146.714 -80.9794C145.476 -78.4163 144.314 -75.8017 143.262 -73.1483C143.606 -72.5072 143.968 -71.8682 144.347 -71.2314C145.717 -73.8577 147.151 -76.4191 148.612 -78.9012ZM142.619 -73.1203C141.863 -71.199 141.164 -69.2571 140.535 -67.2993C140.311 -68.2637 140.119 -69.2305 139.958 -70.1991C140.247 -72.2211 140.635 -74.2376 141.109 -76.2435C141.568 -75.1975 142.071 -74.1562 142.619 -73.1203ZM146.297 -81.4632C145.085 -78.9661 143.943 -76.4186 142.903 -73.8324C142.329 -74.9455 141.809 -76.0646 141.339 -77.1891C141.98 -79.7566 142.758 -82.3055 143.646 -84.8252C144.467 -83.6954 145.35 -82.5744 146.297 -81.4632ZM143.228 -85.4077C143.13 -85.5466 143.033 -85.6856 142.937 -85.8248C142.027 -87.1392 141.199 -88.4646 140.448 -89.7995C139.984 -87.4099 139.649 -85.0087 139.464 -82.6042C139.881 -81.099 140.38 -79.6004 140.965 -78.1105C141.605 -80.5648 142.368 -83.0002 143.228 -85.4077ZM140.721 -77.1524C140.207 -78.3943 139.754 -79.6423 139.358 -80.8953C139.222 -77.9852 139.314 -75.0734 139.672 -72.1746C139.96 -73.8399 140.313 -75.5001 140.721 -77.1524ZM140.006 -90.6033C139.578 -88.515 139.247 -86.4167 139.026 -84.3139C138.158 -87.9918 137.761 -91.7045 137.754 -95.4217C138.401 -93.8045 139.149 -92.1974 140.006 -90.6033ZM109.684 -4.51539C110.709 -24.9763 122.848 -45.2787 132.917 -60.3641L133.42 -60.0704C123.349 -44.9817 111.292 -24.7882 110.274 -4.48474C109.766 5.65763 112.013 15.8235 118.641 25.398C125.27 34.975 136.295 43.9801 153.378 51.7761C193.156 69.9293 225.689 64.7124 250.833 60.6802L250.837 60.6796L250.843 60.6786C253.174 60.3048 255.441 59.9413 257.645 59.6075C270.613 57.6433 281.456 56.6944 290.027 60.8757C298.62 65.0682 304.843 74.3664 308.733 92.656L308.153 92.7582C304.273 74.5168 298.102 65.4348 289.756 61.363C281.386 57.28 270.741 58.1827 257.745 60.1511C255.541 60.4849 253.272 60.8489 250.938 61.2234L250.935 61.2238C225.785 65.2582 193.079 70.5049 153.122 52.2702C135.968 44.4418 124.847 35.3764 118.145 25.6934C111.44 16.008 109.17 5.72445 109.684 -4.51539ZM121.898 -53.1606C111.828 -38.0751 99.6893 -17.7728 98.6641 2.68816C98.151 12.928 100.421 23.2115 107.125 32.8969C113.828 42.5799 124.948 51.6453 142.102 59.4737C182.059 77.7084 214.766 72.4618 239.915 68.4274C242.251 68.0527 244.521 67.6886 246.726 67.3546C259.721 65.3862 270.367 64.4835 278.736 68.5665C287.083 72.6384 293.253 81.7203 297.133 99.9618L297.714 99.8596C293.823 81.57 287.601 72.2717 279.007 68.0793C270.436 63.898 259.593 64.8469 246.625 66.8111C244.419 67.1453 242.148 67.5094 239.814 67.8838C214.669 71.9159 182.137 77.1329 142.359 58.9797C125.276 51.1836 114.251 42.1785 107.621 32.6016C100.994 23.027 98.7467 12.8612 99.2549 2.71881C100.272 -17.5847 112.329 -37.7781 122.401 -52.8669L121.898 -53.1606ZM86.7621 8.86318C87.7874 -11.5977 99.9265 -31.9001 109.996 -46.9856L110.499 -46.6919C100.427 -31.6031 88.3704 -11.4097 87.353 8.89383C86.8448 19.0362 89.092 29.2021 95.7195 38.7766C102.349 48.3536 113.374 57.3587 130.457 65.1547C170.235 83.3079 202.767 78.0909 227.912 74.0588C230.246 73.6845 232.517 73.3203 234.724 72.9861C247.691 71.0219 258.534 70.073 267.105 74.2543C275.699 78.4467 281.921 87.745 285.812 106.035L285.231 106.137C281.351 87.8953 275.181 78.8134 266.834 74.7415C258.465 70.6585 247.819 71.5612 234.824 73.5296C232.619 73.8636 230.349 74.2277 228.013 74.6024C202.864 78.6368 170.157 83.8835 130.2 65.6487C113.047 57.8203 101.926 48.755 95.2231 39.0719C88.5189 29.3865 86.2491 19.103 86.7621 8.86318ZM97.5681 -41.4547C87.4989 -26.3693 75.3598 -6.0669 74.3345 14.394C73.8215 24.6339 76.0914 34.9174 82.7955 44.6028C89.4981 54.2858 100.619 63.3512 117.773 71.1796C157.729 89.4143 190.436 84.1677 215.586 80.1332L215.59 80.1325L215.602 80.1306L215.61 80.1293L215.614 80.1286L215.629 80.1263C217.949 79.7542 220.205 79.3924 222.396 79.0605C235.392 77.092 246.037 76.1894 254.407 80.2724C262.753 84.3443 268.924 93.4262 272.804 111.668L273.384 111.565C269.493 93.2758 263.271 83.9776 254.678 79.7851C246.107 75.6039 235.264 76.5528 222.296 78.5169C220.089 78.8512 217.818 79.2153 215.484 79.5896L215.484 79.5897C190.34 83.6218 157.807 88.8387 118.029 70.6855C100.946 62.8895 89.921 53.8844 83.2919 44.3075C76.6644 34.7329 74.4172 24.567 74.9254 14.4247C75.9428 -5.87884 87.9999 -26.0723 98.0713 -41.161L97.5681 -41.4547ZM61.6552 19.6088C62.6804 -0.852133 74.8195 -21.1545 84.8888 -36.24L85.392 -35.9463C75.3205 -20.8575 63.2634 -0.664064 62.246 19.6394C61.7378 29.7818 63.985 39.9477 70.6125 49.5222C77.2416 59.0992 88.267 68.1043 105.35 75.9003C145.128 94.0535 177.661 88.8365 202.805 84.8044L202.807 84.804L202.817 84.8025C205.147 84.4288 207.413 84.0654 209.617 83.7317C222.584 81.7675 233.427 80.8186 241.998 84.9999C250.592 89.1923 256.814 98.4906 260.705 116.78L260.124 116.882C256.244 98.641 250.074 89.559 241.727 85.4872C233.358 81.4041 222.712 82.3068 209.717 84.2752C207.512 84.6092 205.242 84.9734 202.906 85.348C177.757 89.3824 145.05 94.6291 105.094 76.3944C87.9396 68.5659 76.8187 59.5006 70.1162 49.8175C63.412 40.1322 61.1421 29.8486 61.6552 19.6088ZM72.1694 -31.0788C62.1001 -15.9933 49.961 4.30905 48.9358 24.77C48.4227 35.0098 50.6926 45.2933 57.3968 54.9787C64.0993 64.6617 75.2202 73.7271 92.3741 81.5555C132.331 99.7903 165.037 94.5436 190.187 90.5092C192.522 90.1345 194.793 89.7704 196.997 89.4364C209.993 87.468 220.638 86.5653 229.008 90.6484C237.355 94.7202 243.525 103.802 247.405 122.044L247.985 121.941C244.095 103.652 237.873 94.3535 229.279 90.1611C220.708 85.9798 209.865 86.9287 196.897 88.8929C194.691 89.2271 192.42 89.5911 190.086 89.9654L190.085 89.9656C164.941 93.9977 132.409 99.2147 92.6305 81.0615C75.5476 73.2655 64.5222 64.2603 57.8931 54.6834C51.2657 45.1089 49.0184 34.943 49.5266 24.8006C50.544 4.49712 62.6011 -15.6963 72.6726 -30.7851L72.1694 -31.0788ZM36.3279 30.0761C37.3532 9.6152 49.4922 -10.6871 59.5615 -25.7726L60.0647 -25.4789C49.9932 -10.3902 37.9361 9.80327 36.9188 30.1068C36.4106 40.2491 38.6578 50.415 45.2853 59.9896C51.9144 69.5665 62.9397 78.5716 80.0227 86.3676C119.801 104.521 152.333 99.3039 177.478 95.2717L177.48 95.2713C179.814 94.8971 182.083 94.5331 184.289 94.199C197.257 92.2349 208.1 91.286 216.671 95.4672C225.265 99.6597 231.487 108.958 235.377 127.247L234.797 127.35C230.917 109.108 224.747 100.026 216.4 95.9545C208.031 91.8715 197.385 92.7742 184.389 94.7426C182.185 95.0765 179.914 95.4407 177.579 95.8153C152.429 99.8497 119.723 105.096 79.7662 86.8617C62.6123 79.0333 51.4915 69.9679 44.7889 60.2849C38.0847 50.5995 35.8148 40.316 36.3279 30.0761ZM47.1851 -20.1777C37.1159 -5.09218 24.9768 15.2102 23.9515 35.6711C23.4384 45.9109 25.7083 56.1944 32.4125 65.8798C39.1151 75.5629 50.2359 84.6282 67.3899 92.4567C107.346 110.691 140.053 105.445 165.203 101.41L165.207 101.41C167.541 101.035 169.81 100.671 172.013 100.338C185.009 98.3691 195.654 97.4664 204.024 101.549C212.37 105.621 218.541 114.703 222.421 132.945L223.001 132.842C219.11 114.553 212.888 105.255 204.295 101.062C195.724 96.8809 184.881 97.8298 171.913 99.794C169.706 100.128 167.435 100.492 165.101 100.867C139.957 104.899 107.424 110.116 67.6463 91.9626C50.5633 84.1666 39.538 75.1614 32.9089 65.5845C26.2814 56.01 24.0342 45.8441 24.5424 35.7017C25.5597 15.3982 37.6169 -4.79519 47.6883 -19.884L47.1851 -20.1777ZM11.8919 41.6541C12.9172 21.1932 25.0563 0.890816 35.1255 -14.1947L35.6287 -13.901C25.5572 1.18781 13.5001 21.3812 12.4828 41.6847C11.9746 51.8271 14.2218 61.993 20.8493 71.5675C27.4784 81.1445 38.5037 90.1496 55.5867 97.9456C95.3647 116.099 127.897 110.882 153.042 106.85L153.042 106.85C155.376 106.475 157.647 106.111 159.853 105.777C172.821 103.813 183.664 102.864 192.235 107.045C200.829 111.238 207.051 120.536 210.941 138.825L210.361 138.928C206.481 120.686 200.311 111.604 191.964 107.532C183.595 103.449 172.949 104.352 159.953 106.321C157.749 106.654 155.478 107.019 153.143 107.393C127.993 111.428 95.2869 116.674 55.3303 98.4397C38.1763 90.6112 27.0555 81.5459 20.3529 71.8628C13.6487 62.1775 11.3788 51.8939 11.8919 41.6541ZM23.4424 -7.75823C13.3732 7.32725 1.23409 27.6296 0.208854 48.0905C-0.304239 58.3304 1.96565 68.6139 8.66985 78.2993C15.3724 87.9823 26.4933 97.0477 43.6472 104.876C83.6038 123.111 116.31 117.864 141.46 113.83L141.466 113.829C143.799 113.454 146.067 113.091 148.27 112.757C161.266 110.789 171.912 109.886 180.281 113.969C188.628 118.041 194.798 127.123 198.678 145.364L199.258 145.262C195.368 126.972 189.146 117.674 180.552 113.482C171.981 109.3 161.138 110.249 148.17 112.213C145.963 112.548 143.693 112.912 141.358 113.286L141.358 113.286C116.214 117.318 83.6815 122.535 43.9036 104.382C26.8206 96.586 15.7953 87.5809 9.16619 78.004C2.53872 68.4294 0.291507 58.2636 0.799708 48.1212C1.81706 27.8177 13.8742 7.62425 23.9456 -7.46452L23.4424 -7.75823Z" fill="url(#paint0_radial_39_236)" fill-opacity="0.58"/>
<defs>
<radialGradient id="paint0_radial_39_236" cx="0" cy="0" r="1" gradientUnits="userSpaceOnUse" gradientTransform="translate(146.375 28.4073) rotate(33.312) scale(155.973 157.648)">
<stop stop-color="white"/>
<stop offset="1" stop-color="#1E1E1E" stop-opacity="0"/>
<stop offset="1" stop-color="#0E0E35" stop-opacity="0"/>
<stop offset="1" stop-color="white" stop-opacity="0"/>
</radialGradient>
</defs>
</svg>
